<svg xmlns="http://www.w3.org/2000/svg" viewBox="0 0 900 760" width="900" height="760">
<defs>
  <radialGradient id="bg" cx="80%" cy="10%" r="120%"><stop offset="0" stop-color="#3a3a48"/><stop offset="0.65" stop-color="#0b0b0e"/></radialGradient>
  <radialGradient id="glow" cx="50%" cy="50%" r="50%"><stop offset="0" stop-color="#22c55e" stop-opacity="0.55"/><stop offset="1" stop-color="#22c55e" stop-opacity="0"/></radialGradient>
  <filter id="sh" x="-20%" y="-20%" width="140%" height="160%"><feDropShadow dx="0" dy="30" stdDeviation="30" flood-color="#000" flood-opacity="0.45"/></filter>
  <filter id="soft" x="-20%" y="-20%" width="140%" height="160%"><feDropShadow dx="0" dy="12" stdDeviation="14" flood-color="#000" flood-opacity="0.3"/></filter>
</defs>
<rect width="900" height="760" fill="url(#bg)"/>
<g stroke="#fff" stroke-opacity="0.05"><line x1="0" y1="0" x2="0" y2="760"/><line x1="80" y1="0" x2="80" y2="760"/><line x1="160" y1="0" x2="160" y2="760"/><line x1="240" y1="0" x2="240" y2="760"/><line x1="320" y1="0" x2="320" y2="760"/><line x1="400" y1="0" x2="400" y2="760"/><line x1="480" y1="0" x2="480" y2="760"/><line x1="560" y1="0" x2="560" y2="760"/><line x1="640" y1="0" x2="640" y2="760"/><line x1="720" y1="0" x2="720" y2="760"/><line x1="800" y1="0" x2="800" y2="760"/><line x1="880" y1="0" x2="880" y2="760"/><line x1="0" y1="0" x2="900" y2="0"/><line x1="0" y1="80" x2="900" y2="80"/><line x1="0" y1="160" x2="900" y2="160"/><line x1="0" y1="240" x2="900" y2="240"/><line x1="0" y1="320" x2="900" y2="320"/><line x1="0" y1="400" x2="900" y2="400"/><line x1="0" y1="480" x2="900" y2="480"/><line x1="0" y1="560" x2="900" y2="560"/><line x1="0" y1="640" x2="900" y2="640"/><line x1="0" y1="720" x2="900" y2="720"/></g>
<circle cx="1250" cy="180" r="420" fill="url(#glow)"/>
<circle cx="200" cy="900" r="360" fill="url(#glow)" opacity="0.5"/>
<g font-family="Inter, 'Segoe UI', Arial, sans-serif"><g filter="url(#sh)"><rect x="90" y="110" width="720" height="540" rx="26" fill="#15161c" fill-opacity="1" stroke="#2a2c3a" stroke-width="2" /></g><circle cx="140" cy="170" r="10" fill="#22c55e"/><circle cx="140" cy="170" r="20" fill="#22c55e" opacity="0.25"/><text x="166" y="178" font-size="24" font-weight="700" fill="#fff" fill-opacity="1" text-anchor="start">All systems operational</text><text x="770" y="178" font-size="18" font-weight="700" fill="#22c55e" fill-opacity="1" text-anchor="end">99.9% uptime</text><rect x="130.0" y="220" width="11" height="56" rx="4" fill="#22c55e" fill-opacity="0.9" /><rect x="146.5" y="220" width="11" height="56" rx="4" fill="#22c55e" fill-opacity="0.9" /><rect x="163.0" y="220" width="11" height="56" rx="4" fill="#22c55e" fill-opacity="0.9" /><rect x="179.5" y="220" width="11" height="56" rx="4" fill="#22c55e" fill-opacity="0.9" /><rect x="196.0" y="220" width="11" height="56" rx="4" fill="#22c55e" fill-opacity="0.9" /><rect x="212.5" y="220" width="11" height="56" rx="4" fill="#22c55e" fill-opacity="0.9" /><rect x="229.0" y="220" width="11" height="56" rx="4" fill="#22c55e" fill-opacity="0.9" /><rect x="245.5" y="220" width="11" height="56" rx="4" fill="#22c55e" fill-opacity="0.9" /><rect x="262.0" y="220" width="11" height="56" rx="4" fill="#22c55e" fill-opacity="0.9" /><rect x="278.5" y="220" width="11" height="56" rx="4" fill="#22c55e" fill-opacity="0.9" /><rect x="295.0" y="220" width="11" height="56" rx="4" fill="#22c55e" fill-opacity="0.9" /><rect x="311.5" y="220" width="11" height="56" rx="4" fill="#22c55e" fill-opacity="0.9" /><rect x="328.0" y="220" width="11" height="56" rx="4" fill="#22c55e" fill-opacity="0.9" /><rect x="344.5" y="220" width="11" height="56" rx="4" fill="#22c55e" fill-opacity="0.9" /><rect x="361.0" y="220" width="11" height="56" rx="4" fill="#22c55e" fill-opacity="0.9" /><rect x="377.5" y="220" width="11" height="56" rx="4" fill="#22c55e" fill-opacity="0.9" /><rect x="394.0" y="220" width="11" height="56" rx="4" fill="#22c55e" fill-opacity="0.9" /><rect x="410.5" y="220" width="11" height="56" rx="4" fill="#f59e0b" fill-opacity="0.9" /><rect x="427.0" y="220" width="11" height="56" rx="4" fill="#22c55e" fill-opacity="0.9" /><rect x="443.5" y="220" width="11" height="56" rx="4" fill="#22c55e" fill-opacity="0.9" /><rect x="460.0" y="220" width="11" height="56" rx="4" fill="#22c55e" fill-opacity="0.9" /><rect x="476.5" y="220" width="11" height="56" rx="4" fill="#22c55e" fill-opacity="0.9" /><rect x="493.0" y="220" width="11" height="56" rx="4" fill="#22c55e" fill-opacity="0.9" /><rect x="509.5" y="220" width="11" height="56" rx="4" fill="#22c55e" fill-opacity="0.9" /><rect x="526.0" y="220" width="11" height="56" rx="4" fill="#22c55e" fill-opacity="0.9" /><rect x="542.5" y="220" width="11" height="56" rx="4" fill="#22c55e" fill-opacity="0.9" /><rect x="559.0" y="220" width="11" height="56" rx="4" fill="#22c55e" fill-opacity="0.9" /><rect x="575.5" y="220" width="11" height="56" rx="4" fill="#22c55e" fill-opacity="0.9" /><rect x="592.0" y="220" width="11" height="56" rx="4" fill="#22c55e" fill-opacity="0.9" /><rect x="608.5" y="220" width="11" height="56" rx="4" fill="#22c55e" fill-opacity="0.9" /><rect x="625.0" y="220" width="11" height="56" rx="4" fill="#22c55e" fill-opacity="0.9" /><rect x="641.5" y="220" width="11" height="56" rx="4" fill="#22c55e" fill-opacity="0.9" /><rect x="658.0" y="220" width="11" height="56" rx="4" fill="#22c55e" fill-opacity="0.9" /><rect x="674.5" y="220" width="11" height="56" rx="4" fill="#22c55e" fill-opacity="0.9" /><rect x="691.0" y="220" width="11" height="56" rx="4" fill="#22c55e" fill-opacity="0.9" /><rect x="707.5" y="220" width="11" height="56" rx="4" fill="#22c55e" fill-opacity="0.9" /><rect x="724.0" y="220" width="11" height="56" rx="4" fill="#22c55e" fill-opacity="0.9" /><rect x="740.5" y="220" width="11" height="56" rx="4" fill="#22c55e" fill-opacity="0.9" /><rect x="757.0" y="220" width="11" height="56" rx="4" fill="#22c55e" fill-opacity="0.9" /><rect x="773.5" y="220" width="11" height="56" rx="4" fill="#22c55e" fill-opacity="0.9" /><rect x="130" y="296" width="640" height="58" rx="14" fill="#ffffff" fill-opacity="0.05" /><circle cx="162" cy="325" r="12" fill="#27d974"/><path d="M155 325 l5 5 l9 -10" stroke="#fff" stroke-width="3.5" fill="none" stroke-linecap="round" stroke-linejoin="round"/><text x="190" y="332" font-size="20" font-weight="600" fill="#e5e7eb" fill-opacity="1" text-anchor="start">API</text><text x="740" y="332" font-size="18" font-weight="600" fill="#9ca3af" fill-opacity="1" text-anchor="end" font-family="Consolas, Menlo, monospace" style="white-space:pre">42 ms</text><rect x="130" y="368" width="640" height="58" rx="14" fill="#ffffff" fill-opacity="0.05" /><circle cx="162" cy="397" r="12" fill="#27d974"/><path d="M155 397 l5 5 l9 -10" stroke="#fff" stroke-width="3.5" fill="none" stroke-linecap="round" stroke-linejoin="round"/><text x="190" y="404" font-size="20" font-weight="600" fill="#e5e7eb" fill-opacity="1" text-anchor="start">Database</text><text x="740" y="404" font-size="18" font-weight="600" fill="#9ca3af" fill-opacity="1" text-anchor="end" font-family="Consolas, Menlo, monospace" style="white-space:pre">8 ms</text><rect x="130" y="440" width="640" height="58" rx="14" fill="#ffffff" fill-opacity="0.05" /><circle cx="162" cy="469" r="12" fill="#27d974"/><path d="M155 469 l5 5 l9 -10" stroke="#fff" stroke-width="3.5" fill="none" stroke-linecap="round" stroke-linejoin="round"/><text x="190" y="476" font-size="20" font-weight="600" fill="#e5e7eb" fill-opacity="1" text-anchor="start">Payments</text><text x="740" y="476" font-size="18" font-weight="600" fill="#9ca3af" fill-opacity="1" text-anchor="end" font-family="Consolas, Menlo, monospace" style="white-space:pre">120 ms</text><rect x="130" y="512" width="640" height="58" rx="14" fill="#ffffff" fill-opacity="0.05" /><circle cx="162" cy="541" r="12" fill="#27d974"/><path d="M155 541 l5 5 l9 -10" stroke="#fff" stroke-width="3.5" fill="none" stroke-linecap="round" stroke-linejoin="round"/><text x="190" y="548" font-size="20" font-weight="600" fill="#e5e7eb" fill-opacity="1" text-anchor="start">Real-time</text><text x="740" y="548" font-size="18" font-weight="600" fill="#9ca3af" fill-opacity="1" text-anchor="end" font-family="Consolas, Menlo, monospace" style="white-space:pre">live</text><g filter="url(#soft)"><rect x="520" y="590" width="300" height="90" rx="20" fill="#ffffff" fill-opacity="1" /></g><circle cx="566" cy="635" r="24" fill="#6a71df"/><text x="566" y="643" font-size="24" font-weight="800" fill="#fff" fill-opacity="1" text-anchor="middle">↑</text><text x="604" y="628" font-size="19" font-weight="800" fill="#1d1e26" fill-opacity="1" text-anchor="start">Deployed v2.4.0</text><text x="604" y="656" font-size="15" font-weight="500" fill="#6b7280" fill-opacity="1" text-anchor="start">main · 2 min ago</text></g>
</svg>