<svg xmlns="http://www.w3.org/2000/svg" viewBox="0 0 1600 1000" width="1600" height="1000">
<defs>
  <radialGradient id="bg" cx="80%" cy="10%" r="120%"><stop offset="0" stop-color="#d9761c"/><stop offset="0.65" stop-color="#2a1406"/></radialGradient>
  <radialGradient id="glow" cx="50%" cy="50%" r="50%"><stop offset="0" stop-color="#ffb168" stop-opacity="0.55"/><stop offset="1" stop-color="#ffb168" stop-opacity="0"/></radialGradient>
  <filter id="sh" x="-20%" y="-20%" width="140%" height="160%"><feDropShadow dx="0" dy="30" stdDeviation="30" flood-color="#000" flood-opacity="0.45"/></filter>
  <filter id="soft" x="-20%" y="-20%" width="140%" height="160%"><feDropShadow dx="0" dy="12" stdDeviation="14" flood-color="#000" flood-opacity="0.3"/></filter>
</defs>
<rect width="1600" height="1000" fill="url(#bg)"/>
<g stroke="#fff" stroke-opacity="0.05"><line x1="0" y1="0" x2="0" y2="1000"/><line x1="80" y1="0" x2="80" y2="1000"/><line x1="160" y1="0" x2="160" y2="1000"/><line x1="240" y1="0" x2="240" y2="1000"/><line x1="320" y1="0" x2="320" y2="1000"/><line x1="400" y1="0" x2="400" y2="1000"/><line x1="480" y1="0" x2="480" y2="1000"/><line x1="560" y1="0" x2="560" y2="1000"/><line x1="640" y1="0" x2="640" y2="1000"/><line x1="720" y1="0" x2="720" y2="1000"/><line x1="800" y1="0" x2="800" y2="1000"/><line x1="880" y1="0" x2="880" y2="1000"/><line x1="960" y1="0" x2="960" y2="1000"/><line x1="1040" y1="0" x2="1040" y2="1000"/><line x1="1120" y1="0" x2="1120" y2="1000"/><line x1="1200" y1="0" x2="1200" y2="1000"/><line x1="1280" y1="0" x2="1280" y2="1000"/><line x1="1360" y1="0" x2="1360" y2="1000"/><line x1="1440" y1="0" x2="1440" y2="1000"/><line x1="1520" y1="0" x2="1520" y2="1000"/><line x1="1600" y1="0" x2="1600" y2="1000"/><line x1="0" y1="0" x2="1600" y2="0"/><line x1="0" y1="80" x2="1600" y2="80"/><line x1="0" y1="160" x2="1600" y2="160"/><line x1="0" y1="240" x2="1600" y2="240"/><line x1="0" y1="320" x2="1600" y2="320"/><line x1="0" y1="400" x2="1600" y2="400"/><line x1="0" y1="480" x2="1600" y2="480"/><line x1="0" y1="560" x2="1600" y2="560"/><line x1="0" y1="640" x2="1600" y2="640"/><line x1="0" y1="720" x2="1600" y2="720"/><line x1="0" y1="800" x2="1600" y2="800"/><line x1="0" y1="880" x2="1600" y2="880"/><line x1="0" y1="960" x2="1600" y2="960"/></g>
<circle cx="1250" cy="180" r="420" fill="url(#glow)"/>
<circle cx="200" cy="900" r="360" fill="url(#glow)" opacity="0.5"/>
<g font-family="Inter, 'Segoe UI', Arial, sans-serif"><g filter="url(#sh)"><rect x="200" y="140" width="1200" height="740" rx="22" fill="#ffffff" fill-opacity="1" /></g><path d="M200 162 a22 22 0 0 1 22 -22 h1156 a22 22 0 0 1 22 22 v34 h-1200 z" fill="#f3f4f7"/><circle cx="230" cy="168" r="7" fill="#ff5f57"/><circle cx="254" cy="168" r="7" fill="#febc2e"/><circle cx="278" cy="168" r="7" fill="#28c840"/><rect x="640.0" y="154" width="320" height="28" rx="14" fill="#000" fill-opacity="0.06" /><text x="800.0" y="174" font-size="15" font-weight="500" fill="#8a8d98" fill-opacity="1" text-anchor="middle">gogoshopbd.com</text><rect x="200" y="196" width="1200" height="74" rx="0" fill="#fff" fill-opacity="1" /><text x="240" y="244" font-size="28" font-weight="800" fill="#f08a24" fill-opacity="1" text-anchor="start">GogoShop</text><text x="480" y="242" font-size="17" font-weight="500" fill="#4b4f5c" fill-opacity="1" text-anchor="start">Fashion</text><text x="610" y="242" font-size="17" font-weight="500" fill="#4b4f5c" fill-opacity="1" text-anchor="start">Electronics</text><text x="740" y="242" font-size="17" font-weight="500" fill="#4b4f5c" fill-opacity="1" text-anchor="start">Home</text><text x="870" y="242" font-size="17" font-weight="500" fill="#4b4f5c" fill-opacity="1" text-anchor="start">Beauty</text><rect x="1080" y="214" width="200" height="40" rx="20" fill="#f3f4f7" fill-opacity="1" /><rect x="1102" y="228" width="120" height="12" rx="6" fill="#000" fill-opacity="0.15" /><circle cx="1330" cy="234" r="22" fill="#f08a24"/><text x="1330" y="241" font-size="18" font-weight="800" fill="#fff" fill-opacity="1" text-anchor="middle">3</text><rect x="240" y="300" width="1120" height="160" rx="22" fill="#fff4e8" fill-opacity="1" /><text x="280" y="370" font-size="44" font-weight="800" fill="#1d1e26" fill-opacity="1" text-anchor="start">Mega Sale</text><text x="280" y="412" font-size="20" font-weight="600" fill="#f08a24" fill-opacity="1" text-anchor="start">Up to 50% off this week</text><circle cx="1200" cy="380" r="110" fill="#f08a24" fill-opacity="0.25"/><circle cx="1240" cy="400" r="70" fill="#f08a24" fill-opacity="0.45"/><rect x="240" y="490" width="265" height="360" rx="20" fill="#f7f7fa" fill-opacity="1" /><rect x="260" y="510" width="225" height="200" rx="16" fill="#ffd6a5" fill-opacity="1" /><rect x="260" y="730" width="170" height="14" rx="6" fill="#1d1e26" fill-opacity="0.7" /><text x="260" y="778" font-size="20" font-weight="700" fill="#f08a24" fill-opacity="1" text-anchor="start">৳ 1290</text><rect x="415" y="755" width="70" height="36" rx="18" fill="#1d1e26" fill-opacity="1" /><text x="450" y="779" font-size="15" font-weight="700" fill="#fff" fill-opacity="1" text-anchor="middle">Add</text><rect x="525" y="490" width="265" height="360" rx="20" fill="#f7f7fa" fill-opacity="1" /><rect x="545" y="510" width="225" height="200" rx="16" fill="#caffbf" fill-opacity="1" /><rect x="545" y="730" width="170" height="14" rx="6" fill="#1d1e26" fill-opacity="0.7" /><text x="545" y="778" font-size="20" font-weight="700" fill="#f08a24" fill-opacity="1" text-anchor="start">৳ 1740</text><rect x="700" y="755" width="70" height="36" rx="18" fill="#1d1e26" fill-opacity="1" /><text x="735" y="779" font-size="15" font-weight="700" fill="#fff" fill-opacity="1" text-anchor="middle">Add</text><rect x="810" y="490" width="265" height="360" rx="20" fill="#f7f7fa" fill-opacity="1" /><rect x="830" y="510" width="225" height="200" rx="16" fill="#bdb2ff" fill-opacity="1" /><rect x="830" y="730" width="170" height="14" rx="6" fill="#1d1e26" fill-opacity="0.7" /><text x="830" y="778" font-size="20" font-weight="700" fill="#f08a24" fill-opacity="1" text-anchor="start">৳ 2190</text><rect x="985" y="755" width="70" height="36" rx="18" fill="#1d1e26" fill-opacity="1" /><text x="1020" y="779" font-size="15" font-weight="700" fill="#fff" fill-opacity="1" text-anchor="middle">Add</text><rect x="1095" y="490" width="265" height="360" rx="20" fill="#f7f7fa" fill-opacity="1" /><rect x="1115" y="510" width="225" height="200" rx="16" fill="#ffc6ff" fill-opacity="1" /><rect x="1115" y="730" width="170" height="14" rx="6" fill="#1d1e26" fill-opacity="0.7" /><text x="1115" y="778" font-size="20" font-weight="700" fill="#f08a24" fill-opacity="1" text-anchor="start">৳ 2640</text><rect x="1270" y="755" width="70" height="36" rx="18" fill="#1d1e26" fill-opacity="1" /><text x="1305" y="779" font-size="15" font-weight="700" fill="#fff" fill-opacity="1" text-anchor="middle">Add</text></g>
</svg>